<svg width="500" height="500" viewBox="0 0 500 500" fill="none" xmlns="http://www.w3.org/2000/svg">
<circle cx="250" cy="250" r="250" fill="black"/>
<path d="M340.875 185.25C336.375 185.344 332.438 185.953 329.062 187.078C325.781 188.203 323.062 189.984 320.906 192.422C318.75 194.766 316.594 198 314.438 202.125C312.281 206.25 309.281 212.719 305.438 221.531L243.281 366.516H230.203L165.234 214.359C161.203 204.891 158.062 198.375 155.812 194.812C153.562 191.25 150.562 188.766 146.812 187.359C143.062 185.953 137.484 185.25 130.078 185.25V172.312H227.109V185.25C217.922 185.625 211.547 186.375 207.984 187.5C204.422 188.625 202.641 191.438 202.641 195.938C202.641 200.156 203.766 204.656 206.016 209.438L249.891 311.391L290.391 216.188C293.859 207.938 295.594 202.266 295.594 199.172C295.594 193.078 293.484 189.281 289.266 187.781C285.047 186.281 278.719 185.438 270.281 185.25V172.312H340.875V185.25ZM351.844 345.703C351.844 351.891 349.688 357.094 345.375 361.312C341.062 365.531 335.859 367.641 329.766 367.641C323.766 367.641 318.609 365.531 314.297 361.312C309.984 357.094 307.828 351.891 307.828 345.703C307.828 339.516 309.938 334.266 314.156 329.953C318.375 325.641 323.578 323.484 329.766 323.484C335.953 323.484 341.156 325.641 345.375 329.953C349.688 334.172 351.844 339.422 351.844 345.703Z" fill="white"/>
</svg>
